<?xml version="1.0" standalone="no"?>
<!DOCTYPE svg PUBLIC "-//W3C//DTD SVG 20010904//EN"
 "http://www.w3.org/TR/2001/REC-SVG-20010904/DTD/svg10.dtd">
<svg version="1.0" xmlns="http://www.w3.org/2000/svg"
 width="512.000000pt" height="512.000000pt" viewBox="0 0 512.000000 512.000000"
 preserveAspectRatio="xMidYMid meet">
   <defs>
    <linearGradient id="grad1" x1="0%" y1="50%" x2="100%" y2="0%">
      <stop offset="0%" style="stop-color:#17EAD9;stop-opacity:1" />
      <stop offset="100%" style="stop-color:#6078EA;stop-opacity:1" />
    </linearGradient>
    <linearGradient id="grad4" x1="0%" y1="0%" x2="100%" y2="0%">
      <stop offset="0%" style="stop-color:#46A0E4;stop-opacity:1" />
      <stop offset="100%" style="stop-color:#5091E6;stop-opacity:1" />
    </linearGradient>
  </defs>
<g transform="translate(0.000000,512.000000) scale(0.100000,-0.100000)">
<path fill="url(#grad1)" d="M2209 5115 c-2 -1 -22 -5 -44 -8 -219 -30 -421 -132 -586 -297 -201
-198 -306 -443 -314 -725 -2 -71 -4 -132 -4 -135 -1 -3 -148 -5 -329 -4 -335
0 -387 -4 -492 -43 -125 -46 -260 -168 -320 -290 -73 -150 -68 -35 -69 -1619
-1 -1573 -4 -1509 63 -1647 79 -163 217 -277 396 -326 73 -21 85 -21 2049 -20
1320 0 1994 3 2031 10 204 39 390 208 463 419 l22 65 2 1180 c3 1314 6 1248
-66 1395 -26 54 -57 95 -111 150 -96 96 -179 142 -325 177 -11 3 -89 6 -172 7
-84 1 -156 5 -159 9 -4 3 -8 18 -9 31 -2 14 -11 49 -20 77 -58 173 -199 322
-363 383 -98 36 -122 39 -287 42 -82 1 -158 3 -167 3 -14 1 -17 13 -16 94 2
99 -9 207 -23 244 -5 13 -6 23 -4 23 10 0 -67 197 -100 255 -107 193 -268 346
-462 444 -85 43 -219 87 -298 98 -39 5 -282 13 -286 8z m284 -151 c185 -35
340 -118 478 -254 204 -201 300 -475 267 -764 -12 -105 -64 -265 -111 -341
-34 -56 -74 -113 -97 -139 -57 -65 -33 -61 -339 -60 -154 0 -283 3 -287 7 -6
5 -8 47 -5 83 1 6 22 19 48 29 59 23 137 100 166 163 15 34 21 67 21 122 0
172 -120 300 -296 316 -35 4 -80 16 -103 28 -92 50 -114 187 -42 264 51 55 72
58 350 61 56 1 87 26 87 70 0 51 -40 73 -130 71 -41 -1 -82 -2 -92 -1 -14 1
-17 17 -20 117 -3 108 -5 117 -27 135 -30 25 -62 24 -89 -1 -20 -19 -22 -30
-22 -141 l0 -119 -27 -10 c-198 -72 -274 -297 -160 -472 32 -48 108 -108 157
-122 14 -4 45 -10 70 -13 115 -12 167 -44 195 -117 27 -70 9 -144 -46 -190
-49 -42 -69 -46 -217 -47 -75 -1 -149 -5 -164 -11 -33 -12 -54 -58 -39 -85 21
-40 38 -46 140 -44 l99 1 -1 -47 0 -48 -292 1 c-160 0 -296 4 -302 7 -7 4 -39
44 -72 88 -93 123 -155 265 -179 409 -11 62 -6 273 6 325 7 28 14 59 16 70 6
32 45 125 79 190 59 112 158 225 271 310 102 76 275 148 390 161 28 4 53 8 55
10 9 8 204 -1 264 -12z m-1184 -1219 c28 -88 72 -183 125 -265 25 -39 46 -72
46 -73 0 -5 -1270 0 -1276 5 -12 12 26 115 64 174 46 72 119 138 187 170 96
45 147 50 502 51 l333 0 19 -62z m2440 46 c108 -31 199 -91 260 -175 57 -78
105 -205 79 -207 -66 -5 -918 -2 -918 3 0 5 15 29 34 55 45 64 87 150 122 248
15 44 32 83 37 86 16 11 341 2 386 -10z m851 -544 c166 -62 260 -155 317 -314
15 -41 18 -88 18 -337 l0 -290 -745 -1 c-572 -1 -757 -4 -795 -14 -211 -55
-385 -221 -446 -428 -29 -97 -28 -244 1 -338 66 -211 216 -356 435 -421 55
-16 122 -18 805 -18 l745 -1 0 -280 c0 -246 -2 -286 -18 -333 -57 -162 -175
-272 -337 -316 -47 -13 -324 -15 -2016 -15 -1734 -1 -1967 1 -2015 15 -161 45
-273 149 -335 310 -18 47 -19 106 -22 1425 l-3 1375 2183 -1 c2017 -1 2186 -3
2228 -18z m338 -1551 l-3 -471 -730 0 c-587 1 -740 3 -780 14 -215 59 -360
244 -357 456 2 74 2 76 20 141 47 164 211 303 382 323 30 4 373 7 763 7 l707
0 -2 -470z"/>
<path fill="#17EAD9" d="M1662 4119 c-42 -16 -57 -59 -36 -100 16 -31 32 -37 102 -33 62 2 92
24 92 66 0 28 -29 67 -52 69 -47 4 -92 3 -106 -2z"/>
<path  fill="#24D5DC" d="M2848 4113 c-37 -43 -27 -93 23 -113 36 -15 116 -6 140 16 25 22 24
69 -1 94 -27 27 -139 29 -162 3z"/>
<path  fill="url(#grad4)" d="M3480 2029 c-224 -33 -349 -283 -245 -489 67 -131 227 -207 373 -176
93 20 189 97 229 184 117 250 -85 522 -357 481z m145 -156 c71 -36 106 -96
106 -180 0 -74 -38 -137 -103 -171 -171 -88 -350 83 -271 259 44 99 169 141
268 92z"/>
</g>
</svg>
