<svg version="1.1" id="Layer_1" xmlns="http://www.w3.org/2000/svg" xmlns:xlink="http://www.w3.org/1999/xlink" x="0px" y="0px"
	 width="100%" viewBox="0 0 256 256" enable-background="new 0 0 256 256" xml:space="preserve">

<path fill="#17EAD9" opacity="1.000000" stroke="none" 
	d="
M3.166327,144.994080 
	C3.111180,126.332886 2.644531,107.661072 3.126078,89.013741 
	C3.540000,72.985100 16.349102,60.481525 29.350372,59.981796 
	C38.114365,59.644939 46.878330,59.304470 55.643890,59.013199 
	C58.262867,58.926170 60.887177,58.999760 64.153549,58.999760 
	C62.662460,44.922295 65.974915,32.310406 74.292557,21.623680 
	C82.456871,11.133961 92.966393,3.627628 106.826759,1.352771 
	C113.687645,1.000000 120.375290,1.000000 127.531464,1.000000 
	C133.151993,3.055357 138.343826,5.018610 143.432358,7.220609 
	C145.017242,7.906445 146.322617,9.238239 147.761780,10.889318 
	C146.141083,13.018103 144.514587,14.531888 142.526199,16.012735 
	C135.934845,13.654614 129.869202,10.098310 123.444084,9.243262 
	C106.561508,6.996553 92.212936,12.825775 81.446503,26.171177 
	C75.703995,33.289238 72.544891,41.596661 71.915108,50.928097 
	C71.345833,59.362991 73.378693,67.180580 75.791786,75.102974 
	C73.855240,77.122704 72.237732,78.993805 70.369164,80.573471 
	C68.741676,76.982880 67.104668,73.762863 66.071045,70.359589 
	C65.239883,67.622910 63.819904,66.893303 61.108925,66.941689 
	C52.312077,67.098671 43.510403,67.044266 34.711098,66.989426 
	C23.515491,66.919640 11.942164,77.110840 12.318686,86.166306 
	C28.858194,86.166306 45.426815,86.166306 61.953804,86.502518 
	C60.606899,89.170189 59.301624,91.501648 57.532261,93.900162 
	C41.821095,93.967224 26.574015,93.967224 10.833226,93.967224 
	C10.833226,110.093475 10.833226,125.544769 10.480387,141.002411 
	C7.807141,142.337204 5.486734,143.665649 3.166327,144.994080 
z"/>
<path fill="#6078EA" opacity="1.000000" stroke="none" 
	d="
M254.834137,169.003052 
	C254.888428,189.771744 255.246017,210.546097 254.858200,231.306519 
	C254.686172,240.514877 245.739807,253.557404 232.160828,256.667175 
	C209.979111,257.000000 187.958206,257.000000 165.501663,256.658173 
	C166.377518,254.266190 167.689041,252.216034 169.465179,250.100006 
	C186.898148,250.022659 203.876175,250.361740 220.831818,249.892456 
	C235.237885,249.493744 244.159576,243.791977 246.551590,231.051514 
	C248.228882,222.117889 246.875381,212.615250 246.875381,202.833984 
	C238.575333,202.833984 230.789307,202.833984 223.043854,202.502289 
	C224.722824,199.835800 226.361237,197.500992 228.463959,195.100479 
	C234.840927,195.034760 240.753616,195.034760 247.165878,195.034760 
	C247.165878,187.223495 247.165878,180.112198 247.502075,172.956909 
	C250.170227,171.609634 252.502182,170.306351 254.834137,169.003052 
z"/>
<path fill="#489DE4" opacity="1.000000" stroke="none" 
	d="
M88.000000,257.000000 
	C79.979095,257.000000 71.958199,257.000000 63.472351,256.639679 
	C64.004623,254.241425 65.001831,252.203491 66.463654,250.098846 
	C75.285477,250.076462 83.642693,250.120773 91.957451,250.499176 
	C90.609993,252.888840 89.304993,254.944412 88.000000,257.000000 
z"/>
<path fill="#42A7E3" opacity="1.000000" stroke="none" 
	d="
M65.999054,250.165573 
	C65.001831,252.203491 64.004623,254.241425 63.003704,256.639679 
	C54.979099,257.000000 46.958202,257.000000 38.501122,256.658081 
	C39.374973,254.266571 40.685009,252.216934 42.459972,250.099854 
	C50.616283,250.076782 58.307671,250.121185 65.999054,250.165573 
z"/>
<path fill="#3AB3E1" opacity="1.000000" stroke="none" 
	d="
M41.995049,250.167313 
	C40.685009,252.216934 39.374973,254.266571 38.032471,256.658081 
	C34.307091,257.000000 30.614182,257.000000 26.460636,257.000000 
	C23.102432,255.567383 20.204863,254.134766 17.283985,252.077362 
	C19.119265,249.818954 20.977852,248.185318 23.141083,246.725235 
	C29.628834,247.988281 35.811939,249.077805 41.995049,250.167313 
z"/>
<path fill="#4F94E6" opacity="1.000000" stroke="none" 
	d="
M88.468620,257.000000 
	C89.304993,254.944412 90.609993,252.888840 92.422028,250.432953 
	C100.286018,250.077087 107.642990,250.121490 114.957314,250.499893 
	C113.609779,252.889252 112.304893,254.944626 111.000000,257.000000 
	C103.645744,257.000000 96.291496,257.000000 88.468620,257.000000 
z"/>
<path fill="#538DE7" opacity="1.000000" stroke="none" 
	d="
M111.468277,257.000000 
	C112.304893,254.944626 113.609779,252.889252 115.421585,250.433838 
	C121.952194,250.077789 127.975891,250.121780 133.956985,250.499756 
	C132.609589,252.889160 131.304794,254.944580 130.000000,257.000000 
	C123.978844,257.000000 117.957695,257.000000 111.468277,257.000000 
z"/>
<path fill="#5786E8" opacity="1.000000" stroke="none" 
	d="
M130.467941,257.000000 
	C131.304794,254.944580 132.609589,252.889160 134.420654,250.433807 
	C140.284729,250.077942 145.642532,250.122025 150.994904,250.520660 
	C149.993011,252.916824 148.996506,254.958405 148.000000,257.000000 
	C142.311966,257.000000 136.623917,257.000000 130.467941,257.000000 
z"/>
<path fill="#5C7FE9" opacity="1.000000" stroke="none" 
	d="
M148.467606,257.000000 
	C148.996506,254.958405 149.993011,252.916824 151.458847,250.454758 
	C157.618973,250.078140 163.309769,250.122009 169.000549,250.165878 
	C167.689041,252.216034 166.377518,254.266190 165.033005,256.658173 
	C159.645065,257.000000 154.290146,257.000000 148.467606,257.000000 
z"/>
<path fill="#3AB3E1" opacity="1.000000" stroke="none" 
	d="
M201.991043,66.167519 
	C209.026794,70.796738 211.871475,77.859550 213.629562,86.273972 
	C212.276016,89.163803 210.636810,91.498840 208.533020,93.899109 
	C199.379150,93.920708 190.689865,93.877068 182.041992,93.501762 
	C183.721390,90.835396 185.359344,88.500694 187.461243,86.098846 
	C193.505737,86.031685 199.086288,86.031685 204.983322,86.031685 
	C204.207764,79.834259 200.445740,75.991943 197.189911,71.898300 
	C198.995850,69.896263 200.493454,68.031891 201.991043,66.167519 
z"/>
<path fill="#538DE7" opacity="1.000000" stroke="none" 
	d="
M254.834198,123.002304 
	C254.878067,129.359238 254.921936,135.716187 254.568573,142.578445 
	C251.743027,145.070175 249.314713,147.056595 246.426056,149.025879 
	C238.311707,148.950607 230.657745,148.892456 223.044464,148.502472 
	C224.723557,145.835739 226.361969,143.500870 228.464600,141.100128 
	C234.837738,141.034286 240.746628,141.034286 247.165512,141.034286 
	C247.165512,135.898178 247.165512,131.449097 247.518585,126.994904 
	C250.192505,125.660629 252.513351,124.331467 254.834198,123.002304 
z"/>
<path fill="#2CCADE" opacity="1.000000" stroke="none" 
	d="
M169.832428,46.996128 
	C170.414337,50.797722 170.996246,54.599312 171.675339,59.035763 
	C173.630539,59.035763 175.866211,59.035763 178.545029,59.452454 
	C177.657761,62.190083 176.327347,64.511024 174.585831,66.897049 
	C171.623367,66.943596 168.871460,66.530540 167.740601,70.033371 
	C165.630249,71.130539 163.922668,72.285965 162.148682,73.328362 
	C160.525146,74.282356 158.829819,75.114197 157.221237,75.647171 
	C161.657303,67.788223 162.589767,59.485641 163.228455,50.996662 
	C165.663116,49.637993 167.747772,48.317059 169.832428,46.996128 
z"/>
<path fill="#42A7E3" opacity="1.000000" stroke="none" 
	d="
M208.997589,93.833878 
	C210.636810,91.498840 212.276016,89.163803 213.955170,86.497513 
	C223.495087,85.546135 232.776794,86.123550 241.167084,91.519348 
	C239.377029,93.643898 237.670654,95.382332 235.580170,97.054794 
	C226.834442,92.854668 217.791977,94.374237 208.997589,93.833878 
z"/>
<path fill="#5982E8" opacity="1.000000" stroke="none" 
	d="
M246.886414,149.042999 
	C249.314713,147.056595 251.743027,145.070175 254.502579,143.042755 
	C254.878250,151.358963 254.922653,159.716187 254.900604,168.538239 
	C252.502182,170.306351 250.170227,171.609634 247.435577,172.492279 
	C246.984070,164.395416 246.935242,156.719208 246.886414,149.042999 
z"/>
<path fill="#30C3DF" opacity="1.000000" stroke="none" 
	d="
M174.996918,66.831963 
	C176.327347,64.511024 177.657761,62.190083 178.992310,59.518143 
	C187.082748,59.283062 195.059143,59.767147 201.678558,66.005905 
	C200.493454,68.031891 198.995850,69.896263 196.872620,71.746979 
	C189.809799,67.297997 182.494629,66.669289 174.996918,66.831963 
z"/>
<path fill="#24D6DC" opacity="1.000000" stroke="none" 
	d="
M169.896942,46.579117 
	C167.747772,48.317059 165.663116,49.637993 162.901871,50.759438 
	C162.097565,43.104294 159.435471,36.432087 156.190094,29.897961 
	C158.348923,28.137667 160.198318,26.515253 162.047714,24.892838 
	C166.125092,31.447012 169.486832,38.267452 169.896942,46.579117 
z"/>
<path fill="#1DE0DA" opacity="1.000000" stroke="none" 
	d="
M161.905731,24.584465 
	C160.198318,26.515253 158.348923,28.137667 155.897156,29.731312 
	C151.159210,25.150253 147.023651,20.597965 142.888077,16.045675 
	C144.514587,14.531888 146.141083,13.018103 147.909698,11.199623 
	C154.133713,13.806704 157.909271,19.081827 161.905731,24.584465 
z"/>
<path fill="#489DE4" opacity="1.000000" stroke="none" 
	d="
M235.964279,97.120773 
	C237.670654,95.382332 239.377029,93.643898 241.460327,91.760414 
	C247.156097,95.262817 251.423889,99.715561 252.714783,106.627525 
	C250.326660,108.026985 248.245911,109.012566 246.088623,109.642410 
	C242.662811,105.231377 239.313538,101.176079 235.964279,97.120773 
z"/>
<path fill="#4F94E6" opacity="1.000000" stroke="none" 
	d="
M246.165161,109.998146 
	C248.245911,109.012566 250.326660,108.026985 252.763855,107.002678 
	C253.735489,112.003761 254.350708,117.043571 254.900055,122.542847 
	C252.513351,124.331467 250.192505,125.660629 247.452637,126.532394 
	C246.744110,120.716049 246.454636,115.357101 246.165161,109.998146 
z"/>
<path fill="#24D6DC" opacity="1.000000" stroke="none" 
	d="
M3.165937,192.994431 
	C3.119758,185.304276 3.073577,177.614120 3.432247,169.418365 
	C6.169231,167.607239 8.501366,166.301682 10.902974,165.460571 
	C10.926178,173.615540 10.879907,181.306076 10.498102,189.041092 
	C7.830357,190.388519 5.498147,191.691467 3.165937,192.994431 
z"/>
<path fill="#2ACCDD" opacity="1.000000" stroke="none" 
	d="
M3.097144,193.459061 
	C5.498147,191.691467 7.830357,190.388519 10.566978,189.505585 
	C10.925479,197.616058 10.879569,205.306519 10.496836,213.041595 
	C7.828703,214.389572 5.497394,215.692978 3.166083,216.996368 
	C3.120173,209.305481 3.074262,201.614578 3.097144,193.459061 
z"/>
<path fill="#1DE0DA" opacity="1.000000" stroke="none" 
	d="
M10.833498,164.996124 
	C8.501366,166.301682 6.169231,167.607239 3.501622,168.954071 
	C3.119636,161.304611 3.073126,153.613876 3.096471,145.458618 
	C5.486734,143.665649 7.807141,142.337204 10.550301,141.466797 
	C10.926536,149.615250 10.880016,157.305695 10.833498,164.996124 
z"/>
<path fill="#30C3DF" opacity="1.000000" stroke="none" 
	d="
M3.097942,217.457855 
	C5.497394,215.692978 7.828703,214.389572 10.565128,213.505569 
	C11.353893,220.605347 11.737545,227.285751 11.771030,234.003342 
	C9.336064,235.358414 7.251264,236.676285 5.166466,237.994141 
	C4.454246,231.302551 3.742023,224.610931 3.097942,217.457855 
z"/>
<path fill="#35BBE0" opacity="1.000000" stroke="none" 
	d="
M5.210359,238.336182 
	C7.251264,236.676285 9.336064,235.358414 12.067856,234.178848 
	C16.088713,238.395325 19.462576,242.473495 22.836441,246.551682 
	C20.977852,248.185318 19.119265,249.818954 17.104477,251.776428 
	C13.050270,247.626251 9.152263,243.152237 5.210359,238.336182 
z"/>
<path fill="#FFFFFF" opacity="1.000000" stroke="none" 
	d="
M23.141083,246.725220 
	C19.462576,242.473495 16.088713,238.395325 12.418022,234.141647 
	C11.737545,227.285751 11.353893,220.605347 10.901951,213.460968 
	C10.879569,205.306519 10.925479,197.616058 10.902512,189.461090 
	C10.879907,181.306076 10.926178,173.615540 10.902973,165.460571 
	C10.880016,157.305695 10.926536,149.615250 10.903140,141.460449 
	C10.833226,125.544769 10.833226,110.093475 10.833226,93.967224 
	C26.574015,93.967224 41.821095,93.967224 57.995697,93.969452 
	C64.281616,93.924530 69.640007,93.877380 75.462082,93.899033 
	C81.615219,93.922058 87.304680,93.876282 93.457466,93.900230 
	C99.280060,93.925018 104.639343,93.880081 110.462219,93.903778 
	C116.616760,93.926529 122.307701,93.880646 128.460663,93.901993 
	C133.614594,93.923920 138.306519,93.878616 143.462051,93.901077 
	C149.617218,93.923935 155.308762,93.879036 161.464432,93.901688 
	C168.619217,93.923973 175.309891,93.878708 182.000565,93.833435 
	C190.689865,93.877068 199.379150,93.920708 208.533020,93.899109 
	C217.791977,94.374237 226.834442,92.854668 235.580170,97.054794 
	C239.313538,101.176079 242.662811,105.231377 246.088608,109.642410 
	C246.454636,115.357101 246.744110,120.716049 247.099548,126.537506 
	C247.165512,131.449097 247.165512,135.898178 247.165512,141.034286 
	C240.746628,141.034286 234.837738,141.034286 227.999908,141.033997 
	C219.047913,141.077377 211.024826,141.121048 202.537064,141.099014 
	C195.713715,141.077484 189.355042,141.121658 182.548279,141.100952 
	C172.430817,140.762238 163.773056,143.039810 156.352859,149.804565 
	C148.772858,156.715027 144.720291,169.752563 147.970871,179.487076 
	C149.906204,187.057343 152.846771,193.531708 160.113251,197.426559 
	C167.122574,202.669815 174.851257,203.691635 183.465576,202.899750 
	C190.954330,202.921768 197.978653,202.877777 205.466522,202.899506 
	C211.621155,202.921494 217.312210,202.877747 223.003281,202.833984 
	C230.789307,202.833984 238.575333,202.833984 246.875381,202.833984 
	C246.875381,212.615250 248.228882,222.117889 246.551590,231.051514 
	C244.159576,243.791977 235.237885,249.493744 220.831818,249.892456 
	C203.876175,250.361740 186.898148,250.022659 169.465179,250.100006 
	C163.309769,250.122009 157.618973,250.078140 151.464264,250.100189 
	C145.642532,250.122025 140.284729,250.077942 134.463257,250.099823 
	C127.975891,250.121780 121.952194,250.077789 115.464226,250.099854 
	C107.642990,250.121490 100.286018,250.077087 92.464478,250.098877 
	C83.642693,250.120773 75.285477,250.076462 66.463654,250.098846 
	C58.307671,250.121185 50.616283,250.076782 42.459976,250.099854 
	C35.811939,249.077805 29.628834,247.988281 23.141083,246.725220 
z"/>
<path fill="#FFFFFF" opacity="1.000000" stroke="none" 
	d="
M142.526199,16.012737 
	C147.023651,20.597965 151.159210,25.150253 155.587723,29.869192 
	C159.435471,36.432087 162.097565,43.104294 162.551880,50.797180 
	C162.589767,59.485641 161.657303,67.788223 157.060547,75.958000 
	C155.694794,78.139595 154.722595,79.847542 153.352432,81.130432 
	C151.386215,82.971405 149.129791,84.502441 146.535355,86.099808 
	C141.381348,86.077522 136.689240,86.121231 131.544983,86.098633 
	C129.012344,86.020744 126.891479,86.251686 124.865166,85.914482 
	C123.454643,85.679749 122.173897,84.665131 120.913902,83.641472 
	C122.412643,82.295364 123.719666,81.054611 125.271141,80.359222 
	C134.871964,76.055939 135.748398,59.872097 127.893372,54.575867 
	C125.819794,53.152729 124.008781,51.733845 121.953125,51.004173 
	C118.399055,49.742626 114.693184,48.908752 111.011841,47.515961 
	C108.822517,44.316704 108.144432,41.371967 109.965897,38.071144 
	C111.805305,34.737801 114.715034,33.861324 118.264725,33.972389 
	C121.746346,34.081329 125.272697,34.274837 128.707657,33.850414 
	C131.166092,33.546646 133.376343,32.354588 133.036194,28.955046 
	C132.710724,25.701847 130.528336,26.006193 128.360733,26.003551 
	C125.956726,26.000620 123.552719,26.002880 120.981552,26.002880 
	C120.981552,22.047825 121.382675,18.822325 120.805908,15.782361 
	C120.533073,14.344311 118.408913,12.311971 117.086609,12.283816 
	C115.757324,12.255511 114.067383,14.181485 113.139275,15.636264 
	C112.534477,16.584257 112.929543,18.225122 113.013153,19.546967 
	C113.261337,23.470928 112.704041,26.153637 108.419189,28.549261 
	C99.224777,33.689785 98.347076,46.206703 106.049835,53.370941 
	C107.780518,54.773674 109.218071,56.270367 110.961472,56.854977 
	C114.858894,58.161900 118.908745,59.014267 123.064453,60.393734 
	C126.951447,67.946831 125.192543,72.405251 117.451706,74.060356 
	C113.487892,74.907883 109.252876,74.437241 105.243011,75.144211 
	C103.693161,75.417465 101.490677,77.168022 101.303612,78.488869 
	C101.127724,79.730797 102.938927,81.893608 104.379852,82.557663 
	C106.052147,83.328362 108.298347,82.753273 110.246689,83.066040 
	C111.287819,83.233170 112.226318,84.039627 113.211143,84.557556 
	C113.070679,85.094704 112.930222,85.631859 112.789757,86.169006 
	C107.524277,86.169006 102.258797,86.169006 96.536728,86.103180 
	C91.755508,85.676659 87.430893,85.315964 83.051971,84.603714 
	C80.702057,81.152885 78.406441,78.053612 76.110825,74.954346 
	C73.378693,67.180580 71.345833,59.362991 71.915108,50.928097 
	C72.544891,41.596661 75.703995,33.289238 81.446503,26.171177 
	C92.212936,12.825775 106.561508,6.996553 123.444084,9.243262 
	C129.869202,10.098310 135.934845,13.654614 142.526199,16.012737 
M90.685966,57.728004 
	C91.080750,55.745934 91.475533,53.763859 91.870316,51.781792 
	C88.997704,51.502098 86.103531,50.924320 83.265999,51.129593 
	C82.445480,51.188953 81.006874,53.633018 81.201378,54.748470 
	C81.788383,58.114933 84.656082,58.169739 87.411888,58.004818 
	C88.237907,57.955379 89.067574,57.966881 90.685966,57.728004 
M150.718231,50.304592 
	C149.067215,50.203976 147.416611,50.095684 145.765091,50.004253 
	C141.596634,49.773479 141.391541,52.622005 142.353806,55.265366 
	C142.809479,56.517021 145.064880,57.779896 146.543259,57.826748 
	C148.457306,57.887405 150.877670,57.206482 152.159485,55.924435 
	C152.860779,55.223026 151.665253,52.625130 150.718231,50.304592 
z"/>
<path fill="#FFFFFF" opacity="1.000000" stroke="none" 
	d="
M61.995434,86.166306 
	C45.426815,86.166306 28.858194,86.166306 12.318686,86.166306 
	C11.942164,77.110840 23.515491,66.919640 34.711098,66.989426 
	C43.510403,67.044266 52.312077,67.098671 61.108925,66.941689 
	C63.819904,66.893303 65.239883,67.622910 66.071045,70.359589 
	C67.104668,73.762863 68.741676,76.982880 70.539841,80.836578 
	C71.827042,82.820396 72.692513,84.249680 73.853096,86.166306 
	C69.463921,86.166306 65.729675,86.166306 61.995434,86.166306 
z"/>
<path fill="#1BE4DA" opacity="1.000000" stroke="none" 
	d="
M61.953804,86.502518 
	C65.729675,86.166306 69.463921,86.166306 73.853096,86.166306 
	C72.692513,84.249680 71.827042,82.820396 70.790894,81.128014 
	C72.237732,78.993805 73.855240,77.122704 75.791786,75.102974 
	C78.406441,78.053612 80.702057,81.152885 82.742783,84.746368 
	C79.991394,88.103806 77.494904,90.967018 74.998413,93.830231 
	C69.640007,93.877380 64.281616,93.924530 58.459785,93.902390 
	C59.301624,91.501648 60.606899,89.170189 61.953804,86.502518 
z"/>
<path fill="#FFFFFF" opacity="1.000000" stroke="none" 
	d="
M246.426056,149.025879 
	C246.935242,156.719208 246.984070,164.395416 247.099396,172.536255 
	C247.165878,180.112198 247.165878,187.223495 247.165878,195.034760 
	C240.753616,195.034760 234.840927,195.034760 227.999786,195.033966 
	C221.048080,195.077560 215.024811,195.121964 208.536926,195.100006 
	C201.380707,195.077667 194.689102,195.121689 187.534668,195.099915 
	C179.165924,194.933365 171.028824,196.117233 163.903610,190.590164 
	C158.769333,185.964645 155.210587,180.853256 154.898132,173.567429 
	C155.181946,171.034180 155.132645,168.860962 155.665009,166.841049 
	C158.679337,155.404160 166.941345,150.357010 178.464355,148.901093 
	C185.620117,148.923447 192.311493,148.879074 199.467133,148.900665 
	C207.622162,148.922531 215.312973,148.878418 223.003769,148.834320 
	C230.657745,148.892456 238.311707,148.950607 246.426056,149.025879 
M165.210236,184.681290 
	C169.390381,188.581955 174.285538,190.428650 179.995361,189.515167 
	C194.220703,187.239365 199.710068,171.614746 190.797699,160.330093 
	C182.963455,153.253098 172.720245,152.971710 165.961899,159.501724 
	C158.891235,166.333496 157.963501,176.453873 165.210236,184.681290 
z"/>
<path fill="#5C7FE9" opacity="1.000000" stroke="none" 
	d="
M209.001556,195.166382 
	C215.024811,195.121964 221.048080,195.077560 227.535492,195.099670 
	C226.361237,197.500992 224.722824,199.835800 223.043854,202.502289 
	C217.312210,202.877747 211.621155,202.921494 205.508575,202.563721 
	C206.391891,199.830276 207.696732,197.498337 209.001556,195.166382 
z"/>
<path fill="#FFFFFF" opacity="1.000000" stroke="none" 
	d="
M174.585831,66.897049 
	C182.494629,66.669289 189.809799,67.297997 196.564270,71.884644 
	C200.445740,75.991943 204.207764,79.834259 204.983322,86.031685 
	C199.086288,86.031685 193.505737,86.031685 186.996857,86.033028 
	C179.044769,86.078133 172.021027,86.121887 164.615295,86.100952 
	C163.201263,85.882050 162.169189,85.727829 161.543884,85.634399 
	C163.806915,80.264168 165.960663,75.153259 168.114410,70.042351 
	C168.871460,66.530540 171.623367,66.943596 174.585831,66.897049 
z"/>
<path fill="#35BBE0" opacity="1.000000" stroke="none" 
	d="
M164.997269,86.165649 
	C172.021027,86.121887 179.044769,86.078133 186.532898,86.100189 
	C185.359344,88.500694 183.721390,90.835396 182.041992,93.501762 
	C175.309891,93.878708 168.619217,93.923973 161.507080,93.567101 
	C162.389496,90.831856 163.693390,88.498749 164.997269,86.165649 
z"/>
<path fill="#4F94E6" opacity="1.000000" stroke="none" 
	d="
M223.044464,148.502472 
	C215.312973,148.878418 207.622162,148.922531 199.471817,148.549011 
	C200.342102,145.809174 201.671936,143.486954 203.001755,141.164719 
	C211.024826,141.121048 219.047913,141.077377 227.535675,141.099854 
	C226.361969,143.500870 224.723557,145.835739 223.044464,148.502472 
z"/>
<path fill="#30C3DF" opacity="1.000000" stroke="none" 
	d="
M164.615295,86.100952 
	C163.693390,88.498749 162.389496,90.831856 161.042969,93.499542 
	C155.308762,93.879036 149.617218,93.923935 143.467651,93.549324 
	C144.338852,90.808464 145.668060,88.487129 146.997269,86.165794 
	C149.129791,84.502441 151.386215,82.971405 153.352432,81.130432 
	C154.722595,79.847542 155.694794,78.139595 157.005463,76.310699 
	C158.829819,75.114197 160.525146,74.282356 162.148682,73.328362 
	C163.922668,72.285965 165.630249,71.130539 167.740601,70.033371 
	C165.960663,75.153259 163.806915,80.264168 161.543884,85.634399 
	C162.169189,85.727829 163.201263,85.882050 164.615295,86.100952 
z"/>
<path fill="#24D6DC" opacity="1.000000" stroke="none" 
	d="
M96.993317,86.169006 
	C102.258797,86.169006 107.524277,86.169006 112.789757,86.169006 
	C112.930222,85.631859 113.070679,85.094704 113.211143,84.557556 
	C112.226318,84.039627 111.287819,83.233170 110.246689,83.066040 
	C108.298347,82.753273 106.052147,83.328362 104.379852,82.557663 
	C102.938927,81.893608 101.127724,79.730797 101.303612,78.488869 
	C101.490677,77.168022 103.693161,75.417465 105.243011,75.144211 
	C109.252876,74.437241 113.487892,74.907883 117.451706,74.060356 
	C125.192543,72.405251 126.951447,67.946831 123.368393,60.251682 
	C125.018204,58.141895 126.532013,56.516102 128.045822,54.890305 
	C135.748398,59.872097 134.871964,76.055939 125.271141,80.359222 
	C123.719666,81.054611 122.412643,82.295364 120.573570,83.683990 
	C116.769211,87.334351 113.383911,90.584747 109.998619,93.835144 
	C104.639343,93.880081 99.280060,93.925018 93.464066,93.548569 
	C94.336006,90.807793 95.664658,88.488396 96.993317,86.169006 
z"/>
<path fill="#42A7E3" opacity="1.000000" stroke="none" 
	d="
M177.999985,148.834396 
	C166.941345,150.357010 158.679337,155.404160 155.665009,166.841049 
	C155.132645,168.860962 155.181946,171.034180 154.564758,173.610138 
	C152.094208,175.757080 150.021545,177.430496 147.948898,179.103928 
	C144.720291,169.752563 148.772858,156.715027 156.352859,149.804565 
	C163.773056,143.039810 172.430817,140.762238 182.507904,141.432693 
	C181.277069,144.164337 179.638535,146.499374 177.999985,148.834396 
z"/>
<path fill="#518FE7" opacity="1.000000" stroke="none" 
	d="
M164.045624,190.889832 
	C171.028824,196.117233 179.165924,194.933365 187.493835,195.431580 
	C186.277618,198.163956 184.639374,200.498856 183.001129,202.833740 
	C174.851257,203.691635 167.122574,202.669815 160.153473,197.078918 
	C161.373489,194.574997 162.709549,192.732422 164.045624,190.889832 
z"/>
<path fill="#5786E8" opacity="1.000000" stroke="none" 
	d="
M183.465576,202.899750 
	C184.639374,200.498856 186.277618,198.163956 187.956680,195.497406 
	C194.689102,195.121689 201.380707,195.077667 208.536942,195.100006 
	C207.696732,197.498337 206.391891,199.830276 205.045013,202.498001 
	C197.978653,202.877777 190.954330,202.921768 183.465576,202.899750 
z"/>
<path fill="#489DE4" opacity="1.000000" stroke="none" 
	d="
M163.903610,190.590164 
	C162.709549,192.732422 161.373489,194.574997 159.997208,196.765228 
	C152.846771,193.531708 149.906204,187.057343 147.970871,179.487076 
	C150.021545,177.430496 152.094208,175.757080 154.500244,174.040955 
	C155.210587,180.853256 158.769333,185.964645 163.903610,190.590164 
z"/>
<path fill="#489DE4" opacity="1.000000" stroke="none" 
	d="
M178.464355,148.901093 
	C179.638535,146.499374 181.277069,144.164337 182.955994,141.497574 
	C189.355042,141.121658 195.713715,141.077484 202.537064,141.099014 
	C201.671936,143.486954 200.342102,145.809174 199.007568,148.483047 
	C192.311493,148.879074 185.620117,148.923447 178.464355,148.901093 
z"/>
<path fill="#2ACCDD" opacity="1.000000" stroke="none" 
	d="
M110.462219,93.903778 
	C113.383911,90.584747 116.769211,87.334351 120.494843,84.041428 
	C122.173897,84.665131 123.454643,85.679749 124.865166,85.914482 
	C126.891479,86.251686 129.012344,86.020744 131.503052,86.434685 
	C130.608398,89.169617 129.303513,91.502190 127.998642,93.834763 
	C122.307701,93.880646 116.616760,93.926529 110.462219,93.903778 
z"/>
<path fill="#1DE0DA" opacity="1.000000" stroke="none" 
	d="
M96.536728,86.103180 
	C95.664658,88.488396 94.336006,90.807793 93.000748,93.478851 
	C87.304680,93.876282 81.615219,93.922058 75.462082,93.899033 
	C77.494904,90.967018 79.991394,88.103806 82.797073,85.097931 
	C87.430893,85.315964 91.755508,85.676659 96.536728,86.103180 
z"/>
<path fill="#2CCADE" opacity="1.000000" stroke="none" 
	d="
M128.460663,93.901993 
	C129.303513,91.502190 130.608398,89.169617 131.955200,86.500992 
	C136.689240,86.121231 141.381348,86.077522 146.535355,86.099808 
	C145.668060,88.487129 144.338852,90.808464 143.004059,93.481560 
	C138.306519,93.878616 133.614594,93.923920 128.460663,93.901993 
z"/>
<path fill="#18E9D9" opacity="1.000000" stroke="none" 
	d="
M105.895500,53.050987 
	C98.347076,46.206703 99.224777,33.689785 108.419189,28.549261 
	C112.704041,26.153637 113.261337,23.470928 113.013153,19.546967 
	C112.929543,18.225122 112.534477,16.584257 113.139275,15.636264 
	C114.067383,14.181485 115.757324,12.255511 117.086609,12.283816 
	C118.408913,12.311971 120.533073,14.344311 120.805908,15.782361 
	C121.382675,18.822325 120.981552,22.047825 120.981552,26.002880 
	C123.552719,26.002880 125.956726,26.000620 128.360733,26.003551 
	C130.528336,26.006193 132.710724,25.701847 133.036194,28.955046 
	C133.376343,32.354588 131.166092,33.546646 128.707657,33.850414 
	C125.272697,34.274837 121.746346,34.081329 118.264725,33.972389 
	C114.715034,33.861324 111.805305,34.737801 109.965897,38.071144 
	C108.144432,41.371967 108.822517,44.316704 110.870209,47.820061 
	C109.143661,50.019444 107.519585,51.535217 105.895500,53.050987 
z"/>
<path fill="#1DE0DA" opacity="1.000000" stroke="none" 
	d="
M106.049835,53.370945 
	C107.519585,51.535217 109.143661,50.019444 110.909363,48.199570 
	C114.693184,48.908752 118.399055,49.742626 121.953125,51.004173 
	C124.008781,51.733845 125.819794,53.152729 127.893372,54.575867 
	C126.532013,56.516102 125.018204,58.141895 123.200455,59.909740 
	C118.908745,59.014267 114.858894,58.161900 110.961472,56.854977 
	C109.218071,56.270367 107.780518,54.773674 106.049835,53.370945 
z"/>
<path fill="#17EAD9" opacity="1.000000" stroke="none" 
	d="
M90.290771,57.839233 
	C89.067574,57.966881 88.237907,57.955379 87.411888,58.004818 
	C84.656082,58.169739 81.788383,58.114933 81.201378,54.748470 
	C81.006874,53.633018 82.445480,51.188953 83.265999,51.129593 
	C86.103531,50.924320 88.997704,51.502098 91.870316,51.781792 
	C91.475533,53.763859 91.080750,55.745934 90.290771,57.839233 
z"/>
<path fill="#24D6DC" opacity="1.000000" stroke="none" 
	d="
M151.021667,50.593521 
	C151.665253,52.625130 152.860779,55.223026 152.159485,55.924435 
	C150.877670,57.206482 148.457306,57.887405 146.543259,57.826748 
	C145.064880,57.779896 142.809479,56.517021 142.353806,55.265366 
	C141.391541,52.622005 141.596634,49.773479 145.765091,50.004253 
	C147.416611,50.095684 149.067215,50.203976 151.021667,50.593521 
z"/>
<path fill="#489DE4" opacity="1.000000" stroke="none" 
	d="
M164.898346,184.053818 
	C157.963501,176.453873 158.891235,166.333496 165.961899,159.501724 
	C172.720245,152.971710 182.963455,153.253098 190.636047,160.790466 
	C188.278610,162.511948 186.082794,163.773056 183.550049,164.870972 
	C177.794388,161.999023 173.443268,162.490479 170.443497,166.150040 
	C167.741852,169.445877 168.024948,174.805832 170.812698,179.100113 
	C168.636200,180.842056 166.767273,182.447937 164.898346,184.053818 
z"/>
<path fill="#4F94E6" opacity="1.000000" stroke="none" 
	d="
M183.886993,165.034164 
	C186.082794,163.773056 188.278610,162.511948 190.791550,161.102692 
	C199.710068,171.614746 194.220703,187.239365 179.995361,189.515167 
	C174.285538,190.428650 169.390381,188.581955 165.054291,184.367554 
	C166.767273,182.447937 168.636200,180.842056 171.133087,179.260864 
	C174.417206,179.890305 177.197708,181.318146 179.705185,180.939209 
	C186.177811,179.961136 190.413544,172.270157 183.886993,165.034164 
z"/>
<path fill="#FFFFFF" opacity="1.000000" stroke="none" 
	d="
M183.550049,164.870972 
	C190.413544,172.270157 186.177811,179.961136 179.705185,180.939209 
	C177.197708,181.318146 174.417206,179.890305 171.440674,179.124802 
	C168.024948,174.805832 167.741852,169.445877 170.443497,166.150040 
	C173.443268,162.490479 177.794388,161.999023 183.550049,164.870972 
z"/>
</svg>
